# xmcd CD database file
#
# Track frame offsets:
#	150
#	17731
#	33538
#	47547
#	62629
#	79366
#	93467
#	108807
#	123879
#	139794
#	155104
#	170067
#	182818
#	198339
#	214965
#	230291
#
# Disc length: 3292 seconds
#
# Revision: 0
# Processed by: cddbd v1.5.1PL0 Copyright (c) Steve Scherf et al.
# Submitted via: Feurio! 1.68 - http://www.feurio.com
#
DISCID=dd0cda10
DTITLE=Wild Canyon - Lucky 13
DYEAR=1900
DGENRE=Country
TTITLE0=Can We Change It?
TTITLE1=In The Stillness Of The Night
TTITLE2=Deep Sublime
TTITLE3=Diane (Lady Of The Wilderness)
TTITLE4=I Won't Take That Road Again
TTITLE5=Now Ask Yourself
TTITLE6=Just We
TTITLE7=Nothing Could Be Finer
TTITLE8=Sometimes
TTITLE9=Take It To The One Who Loves You
TTITLE10=Let Me Go
TTITLE11=The Flood Song
TTITLE12=Let No One Else Come Between Us
TTITLE13=Roll On
TTITLE14=Six Days On The Road
TTITLE15=My Part Of That Life
EXTD=
EXTT0=
EXTT1=
EXTT2=
EXTT3=
EXTT4=
EXTT5=
EXTT6=
EXTT7=
EXTT8=
EXTT9=
EXTT10=
EXTT11=
EXTT12=
EXTT13=
EXTT14=
EXTT15=
PLAYORDER=
